<!--
  - Copyright (c) 2022.
  -->

<svg height="1150" viewBox="0 0 1150 1150" width="1150" xmlns="http://www.w3.org/2000/svg"><defs><linearGradient id="a" x1="65.679%" x2="41.031%" y1="32.821%" y2="56.564%"><stop offset="0%" stop-color="#FFF"/><stop offset="100%" stop-color="#FFF" stop-opacity="0"/></linearGradient><linearGradient id="b" x1="65.678%" x2="41.031%" y1="32.821%" y2="56.564%"><stop offset="0%" stop-color="#FFF"/><stop offset="100%" stop-color="#FFF" stop-opacity="0"/></linearGradient><linearGradient id="c" x1="60.279%" x2="45.248%" y1="6.722%" y2="70.006%"><stop offset="0%" stop-color="#FFF"/><stop offset="100%" stop-color="#FFF" stop-opacity="0"/></linearGradient><linearGradient id="d" x1="70.299%" x2="33.086%" y1="31.282%" y2="65.596%"><stop offset="0%" stop-color="#FFF"/><stop offset="100%" stop-color="#FFF" stop-opacity="0"/></linearGradient><linearGradient id="e" x1="44.165%" x2="54.882%" y1="1.53%" y2="96.981%"><stop offset="0%" stop-color="#FFF"/><stop offset="100%" stop-color="#FFF" stop-opacity="0"/></linearGradient><linearGradient id="f" x1="61.719%" x2="20.609%" y1="30.278%" y2="77.358%"><stop offset="0%" stop-color="#FFF"/><stop offset="100%" stop-color="#FFF" stop-opacity="0"/></linearGradient><linearGradient id="g" x1="81.849%" x2="-.712%" y1="67.297%" y2="8.973%"><stop offset="0%" stop-color="#FFF"/><stop offset="100%" stop-color="#FFF" stop-opacity="0"/></linearGradient></defs><g fill="none" fill-rule="evenodd"><rect fill="#003ECB" height="1150" width="1150"/><g transform="translate(189 170)"><path d="M512.5,598.5 C512.5,598.5 638.5,399.5 638.5,262.6 C638.5,165.9 582.1,55.1 512.5,15 C442.9,-25.1 386.5,20.8 386.5,117.5 C386.5,253.2 512.5,598.5 512.5,598.5 Z M512.5,112.2 C543.2,129.9 568.1,178.6 568.1,221.1 C568.1,263.6 543.2,283.6 512.5,265.9 C481.8,248.2 456.9,199.5 456.9,157 C456.9,114.6 481.8,94.5 512.5,112.2 Z" fill="url(#a)" fill-rule="nonzero" opacity=".07"/><path d="M472.5,628.5 C472.5,628.5 598.5,429.5 598.5,292.6 C598.5,195.9 542.1,85.1 472.5,45 C402.9,4.9 346.5,50.8 346.5,147.5 C346.5,283.2 472.5,628.5 472.5,628.5 Z M472.5,142.2 C503.2,159.9 528.1,208.6 528.1,251.1 C528.1,293.6 503.2,313.6 472.5,295.9 C441.8,278.2 416.9,229.5 416.9,187 C416.9,144.5 441.8,124.5 472.5,142.2 Z" fill="url(#b)" fill-rule="nonzero" opacity=".4"/><polygon fill="url(#c)" fill-rule="nonzero" opacity=".3" points="216 352.8 402.9 460.7 402.9 807 216 699.1"/><polygon fill="#FFF" fill-rule="nonzero" opacity=".15" points="245.7 573 357 637.3 357 650.9 245.6 586.6"/><polygon fill="#FFF" fill-rule="nonzero" opacity=".15" points="257.2 606.7 345.5 657.6 345.5 671.2 257.2 620.3"/><polygon fill="#F2C94C" points="287.4 668.3 157.4 593.2 157.4 631.9 287.4 707"/><path d="M308,466.5 L269.1,444 L269.1,430.9 L308,453.4 C311.2,455.2 315.8,459 319.7,464.7 C323.9,470.8 327,478.5 327,486.9 C327,496.1 324.6,501.4 320.2,502.9 C316,504.3 311,501.9 308,500.1 L292,490.9 L291.9,490.8 C290.5,490 288.3,489.2 286.6,489.7 C285.2,490.1 283.6,491.5 283.6,496.7 C283.6,501.8 285.2,505 286.5,506.9 C288.2,509.2 290.3,510.9 291.7,511.6 L291.9,511.7 L340.9,540 L340.9,553.1 L292.3,525 C289,523.3 284.1,519.6 280,513.7 C275.4,507.3 272.3,499.2 272.3,490.1 C272.3,481.1 275.4,476.5 279.9,475.2 C284.1,474 288.9,475.7 292.2,477.8 L308,487 C310.3,488.3 312,488.9 313.2,488.5 C314.1,488.2 315.7,487 315.7,480.3 C315.7,476 314.3,473.2 313,471.3 C311.4,469 309.3,467.3 308,466.5 Z" fill="#FFF" fill-rule="nonzero" opacity=".15"/><path d="M282.9 447.7C282.9 460.6 275.3 466.7 266 461.4 256.7 456 249.1 441.2 249.1 428.2 249.1 415.3 256.7 409.2 266 414.5 275.4 419.9 282.9 434.8 282.9 447.7zM365.9 561.7C365.9 574.6 358.3 580.7 349 575.4 339.7 570 332.1 555.2 332.1 542.2 332.1 529.3 339.7 523.2 349 528.5 358.4 533.9 365.9 548.8 365.9 561.7z" fill="#F2C94C"/><polygon fill="url(#d)" fill-rule="nonzero" opacity=".3" points="329.4 209.1 31.9 37.3 32 192.4 303.3 349 329.6 387.9"/><polygon fill="#F2994A" points=".2 97.8 .2 55.7 112.5 120.5 112.5 162.6"/><polygon fill="#FFF" fill-rule="nonzero" opacity=".15" points="253 202.7 187.8 165 187.8 178.6 253 216.2"/><polygon fill="#FFF" fill-rule="nonzero" opacity=".15" points="253 229.9 127.3 157.4 127.3 171 253 243.6"/><polygon fill="#FFF" fill-rule="nonzero" opacity=".15" points="253 257.2 100.7 169.3 100.7 182.9 253 270.9"/><path d="M269,226.1 C269,238.9 276.6,253.6 285.9,259 C295.2,264.4 302.8,258.4 302.8,245.6 C302.8,232.8 295.2,218.1 285.9,212.7 C276.6,207.4 269,213.4 269,226.1 Z" fill="#F2994A"/><polygon fill="url(#e)" fill-rule="nonzero" opacity=".3" points="449.1 484.1 746.7 655.9 746.8 811 475.5 654.3 449.3 662.9"/><polygon fill="#F2994A" points="660.1 683.2 660.1 641.1 772.4 705.9 772.4 748"/><polygon fill="#FFF" fill-rule="nonzero" opacity=".15" points="525.7 566 590.9 603.6 590.9 617.2 525.7 579.6"/><polygon fill="#FFF" fill-rule="nonzero" opacity=".15" points="525.7 593.3 643.4 661.2 643.4 674.8 525.7 606.9"/><polygon fill="#FFF" fill-rule="nonzero" opacity=".15" points="525.7 620.5 678 708.4 678 722 525.7 634.1"/><path d="M509.6,570.9 C509.6,583.7 502,589.7 492.7,584.3 C483.4,578.9 475.8,564.2 475.8,551.4 C475.8,538.6 483.4,532.6 492.7,538 C502.1,543.4 509.6,558.2 509.6,570.9 Z" fill="#F2994A"/><path d="M122.8,461 C55.2,374.2 104.1,343 122.8,393.8 C141.5,364.7 190.4,452.3 122.8,461 Z" fill="url(#f)" fill-rule="nonzero" opacity=".2"/><path d="M735.2,523.1 L699.7,551.8 C695.9,554.9 689,551.7 684.5,544.6 C679.9,537.5 679.3,529.3 683.1,526.2 L698,514.2 L641.2,481.4 C635.2,477.9 630.4,469.6 630.4,462.7 C630.4,455.8 635.2,453 641.2,456.4 L698,489.2 L683,459.9 C679.2,452.4 679.8,444.9 684.4,443.1 C689,441.3 695.8,446 699.6,453.5 L735.2,523.1 Z" fill="url(#g)" fill-rule="nonzero" opacity=".2"/></g></g></svg>
